<?xml version="1.0" encoding="UTF-8"?>
<svg xmlns="http://www.w3.org/2000/svg" xmlns:xlink="http://www.w3.org/1999/xlink" width="50px" height="50px" viewBox="0 0 50 50" version="1.1">
<g id="surface1">
<path fill="#4442BA" d="M 21.675781 15.546875 L 20.992188 15.550781 C 20.464844 15.550781 20.035156 15.976562 20.035156 16.507812 L 20.035156 22.550781 C 20.035156 23.082031 20.464844 23.511719 20.992188 23.511719 L 21.675781 23.515625 C 28.128906 23.515625 31.402344 22.171875 31.402344 19.53125 C 31.402344 16.886719 28.128906 15.546875 21.675781 15.546875 Z M 21.949219 21.597656 L 21.949219 17.460938 C 27.152344 17.496094 29.488281 18.519531 29.488281 19.53125 C 29.488281 20.542969 27.152344 21.5625 21.949219 21.597656 Z M 35.355469 9.019531 C 32.207031 7.515625 28.441406 7.304688 24.84375 7.304688 L 22.589844 7.316406 L 12.378906 7.277344 C 12.097656 7.265625 11.878906 7.378906 11.699219 7.558594 C 11.519531 7.738281 11.417969 7.980469 11.417969 8.234375 L 11.417969 40.519531 C 11.417969 41.046875 11.847656 41.476562 12.375 41.476562 L 20.992188 41.476562 C 21.523438 41.476562 21.949219 41.046875 21.949219 40.519531 L 21.949219 31.378906 C 22.253906 31.378906 22.574219 31.378906 22.90625 31.382812 C 23.402344 31.390625 23.925781 31.394531 24.46875 31.394531 C 29.488281 31.394531 41.246094 31.394531 41.246094 19.4375 C 41.246094 14.402344 39.265625 10.894531 35.355469 9.019531 Z M 24.46875 29.476562 C 23.929688 29.476562 23.414062 29.472656 22.921875 29.46875 C 22.472656 29.464844 22.046875 29.460938 21.589844 29.460938 L 20.933594 29.503906 C 20.429688 29.53125 20.035156 29.953125 20.035156 30.457031 L 20.035156 39.5625 L 13.332031 39.5625 L 13.332031 9.199219 L 22.585938 9.230469 L 24.84375 9.222656 C 32.367188 9.222656 39.332031 10.460938 39.332031 19.4375 C 39.332031 28.261719 32.1875 29.476562 24.46875 29.476562 Z M 43.992188 0 L 6.007812 0 C 2.695312 0 0 2.695312 0 6.007812 L 0 43.992188 C 0 47.304688 2.695312 50 6.007812 50 L 43.992188 50 C 47.304688 50 50 47.304688 50 43.992188 L 50 6.007812 C 50 2.695312 47.304688 0 43.992188 0 Z M 48.085938 43.992188 C 48.085938 46.246094 46.25 48.085938 43.992188 48.085938 L 6.007812 48.085938 C 3.75 48.085938 1.914062 46.25 1.914062 43.992188 L 1.914062 6.007812 C 1.914062 3.75 3.75 1.914062 6.007812 1.914062 L 43.992188 1.914062 C 46.25 1.914062 48.085938 3.75 48.085938 6.007812 Z M 48.085938 43.992188 "/>
</g>
</svg>
