<?xml version="1.0" encoding="UTF-8"?>
<svg xmlns="http://www.w3.org/2000/svg" xmlns:xlink="http://www.w3.org/1999/xlink" width="50px" height="40px" viewBox="0 0 50 40" version="1.1">
<g id="surface1">
<path fill="#4442BA" d="M 32.5 0 C 27.523438 0 20 2.5 20 2.5 L 20 12.5 C 23.75 12.5 25.9375 13.75 28.125 15 C 30.3125 16.25 32.5 17.5 36.25 17.5 C 40.65625 17.5 50 16.25 50 10 C 50 3.75 40 0 32.5 0 Z M 10 7.5 C 10 10.257812 12.242188 12.5 15 12.5 L 17.5 12.5 L 17.5 2.5 L 15 2.5 C 12.242188 2.5 10 4.742188 10 7.5 Z M 22.5 40 C 30 40 40 36.25 40 30 C 40 23.75 30.65625 22.5 26.25 22.5 C 22.5 22.5 20.3125 23.75 18.125 25 C 15.9375 26.25 13.75 27.5 10 27.5 L 10 37.5 C 10 37.5 17.523438 40 22.5 40 Z M 0 32.5 C 0 35.257812 2.242188 37.5 5 37.5 L 7.5 37.5 L 7.5 27.5 L 5 27.5 C 2.242188 27.5 0 29.742188 0 32.5 Z M 0 32.5 "/>
</g>
</svg>
