<?xml version="1.0" encoding="UTF-8"?>
<svg xmlns="http://www.w3.org/2000/svg" xmlns:xlink="http://www.w3.org/1999/xlink" width="50px" height="50px" viewBox="0 0 50 50" version="1.1">
<g id="surface1">
<path fill="#4442BA" d="M 3.125 0 C 1.867188 0 0.722656 0.761719 0.234375 1.933594 C -0.253906 3.105469 0.0195312 4.445312 0.910156 5.34375 L 21.875 26.296875 L 21.875 43.75 L 15.625 43.75 C 13.898438 43.75 12.5 45.148438 12.5 46.875 C 12.5 48.601562 13.898438 50 15.625 50 L 34.375 50 C 36.101562 50 37.5 48.601562 37.5 46.875 C 37.5 45.148438 36.101562 43.75 34.375 43.75 L 28.125 43.75 L 28.125 26.296875 L 49.082031 5.332031 C 49.980469 4.433594 50.242188 3.097656 49.757812 1.925781 C 49.265625 0.753906 48.132812 0 46.875 0 Z M 25 20.578125 L 10.671875 6.25 L 39.328125 6.25 Z M 25 20.578125 "/>
</g>
</svg>
