<?xml version="1.0" encoding="UTF-8"?>
<svg xmlns="http://www.w3.org/2000/svg" xmlns:xlink="http://www.w3.org/1999/xlink" width="50px" height="50px" viewBox="0 0 50 50" version="1.1">
<g id="surface1">
<path fill="#4442BA" d="M 25 2.585938 C 33.246094 2.585938 39.929688 9.269531 39.929688 17.511719 C 39.929688 22.226562 37.710938 26.644531 33.9375 29.464844 C 33.9375 33.527344 33.9375 37.585938 33.9375 41.644531 C 33.9375 42.320312 33.390625 42.867188 32.71875 42.867188 L 30.828125 42.867188 L 30.828125 46.195312 C 30.828125 46.867188 30.28125 47.414062 29.605469 47.414062 L 20.390625 47.414062 C 19.71875 47.414062 19.171875 46.867188 19.171875 46.195312 L 19.171875 42.867188 L 17.28125 42.867188 C 16.609375 42.867188 16.0625 42.320312 16.0625 41.644531 C 16.0625 37.585938 16.0625 33.527344 16.0625 29.464844 C 12.289062 26.640625 10.070312 22.226562 10.070312 17.511719 C 10.070312 9.269531 16.753906 2.585938 25 2.585938 Z M 28.386719 42.867188 L 21.613281 42.867188 L 21.613281 44.972656 L 28.386719 44.972656 Z M 8.425781 7.664062 C 9.570312 8.789062 7.863281 10.527344 6.71875 9.402344 L 3.183594 5.933594 C 2.039062 4.8125 3.746094 3.074219 4.890625 4.195312 Z M 43.28125 9.402344 C 42.136719 10.527344 40.429688 8.789062 41.574219 7.664062 L 45.109375 4.195312 C 46.253906 3.074219 47.960938 4.8125 46.816406 5.933594 Z M 44.0625 20.171875 C 42.457031 20.171875 42.457031 17.730469 44.0625 17.730469 L 48.210938 17.730469 C 49.816406 17.730469 49.816406 20.171875 48.210938 20.171875 Z M 1.789062 20.171875 C 0.183594 20.171875 0.183594 17.730469 1.789062 17.730469 L 5.9375 17.730469 C 7.542969 17.730469 7.542969 20.171875 5.9375 20.171875 Z M 26.222656 21.171875 L 26.222656 24.480469 C 26.222656 25.15625 25.675781 25.703125 25 25.703125 C 24.324219 25.703125 23.777344 25.15625 23.777344 24.480469 L 23.777344 21.175781 C 22.316406 20.660156 21.332031 19.273438 21.332031 17.714844 C 21.332031 15.695312 22.980469 14.042969 25 14.042969 C 27.027344 14.042969 28.667969 15.6875 28.667969 17.714844 C 28.667969 19.273438 27.675781 20.65625 26.222656 21.171875 Z M 25 16.488281 C 24.316406 16.488281 23.773438 17.03125 23.773438 17.714844 C 23.773438 18.390625 24.324219 18.941406 25 18.941406 C 25.683594 18.941406 26.226562 18.398438 26.226562 17.714844 C 26.226562 17.035156 25.675781 16.488281 25 16.488281 Z M 18.503906 31.734375 L 31.496094 29.730469 L 31.5 28.84375 C 31.5 28.453125 31.683594 28.070312 32.03125 27.835938 C 35.453125 25.5 37.484375 21.660156 37.484375 17.511719 C 37.484375 10.617188 31.894531 5.027344 25 5.027344 C 18.105469 5.027344 12.515625 10.617188 12.515625 17.511719 C 12.515625 21.632812 14.519531 25.449219 17.90625 27.792969 C 18.265625 28.003906 18.503906 28.394531 18.503906 28.84375 Z M 31.496094 32.203125 L 18.503906 34.207031 L 18.503906 36.046875 L 31.496094 34.046875 Z M 31.496094 36.515625 L 18.503906 38.519531 L 18.503906 40.421875 C 22.835938 40.421875 27.164062 40.421875 31.496094 40.421875 Z M 31.496094 36.515625 "/>
</g>
</svg>
