<?xml version="1.0" encoding="UTF-8"?>
<svg xmlns="http://www.w3.org/2000/svg" xmlns:xlink="http://www.w3.org/1999/xlink" width="50px" height="57px" viewBox="0 0 50 57" version="1.1">
<g id="surface1">
<path fill="#4442BA" d="M 17.855469 23.210938 C 17.855469 26.453125 16.117188 29.210938 13.707031 30.761719 C 11.785156 31.996094 10.191406 33.664062 9.050781 35.625 L 33.804688 35.625 C 32.667969 33.664062 31.070312 31.996094 29.152344 30.761719 C 26.742188 29.210938 25 26.453125 25 23.210938 L 25 7.125 L 17.855469 7.125 Z M 32.144531 7.125 L 32.144531 23.210938 C 32.144531 23.847656 32.488281 24.425781 33.023438 24.769531 C 34.273438 25.570312 35.425781 26.496094 36.472656 27.53125 L 40.859375 23.15625 L 40.078125 22.375 C 39.027344 21.332031 39.027344 19.636719 40.078125 18.601562 C 41.128906 17.566406 42.824219 17.554688 43.863281 18.601562 L 46.539062 21.273438 L 49.21875 23.945312 C 50.269531 24.992188 50.269531 26.683594 49.21875 27.71875 C 48.167969 28.757812 46.472656 28.765625 45.433594 27.71875 L 44.652344 26.941406 L 39.820312 31.761719 C 41.742188 34.96875 42.855469 38.730469 42.855469 42.75 C 42.855469 47.136719 41.527344 51.222656 39.261719 54.605469 C 38.191406 56.210938 36.304688 57 34.375 57 L 8.492188 57 C 6.5625 57 4.675781 56.210938 3.605469 54.605469 C 1.328125 51.222656 0 47.136719 0 42.75 C 0 35.203125 3.917969 28.578125 9.832031 24.769531 C 10.367188 24.425781 10.714844 23.847656 10.714844 23.210938 L 10.714844 7.125 C 8.738281 7.125 7.144531 5.53125 7.144531 3.5625 C 7.144531 1.59375 8.738281 0 10.714844 0 L 32.144531 0 C 34.117188 0 35.714844 1.59375 35.714844 3.5625 C 35.714844 5.53125 34.117188 7.125 32.144531 7.125 Z M 32.144531 7.125 "/>
</g>
</svg>
