<?xml version="1.0" encoding="UTF-8"?>
<svg xmlns="http://www.w3.org/2000/svg" xmlns:xlink="http://www.w3.org/1999/xlink" width="50px" height="66px" viewBox="0 0 50 66" version="1.1">
<g id="surface1">
<path fill="#4442BA" d="M 28.085938 64.351562 C 34.765625 56.074219 50 36.015625 50 24.75 C 50 11.085938 38.800781 0 25 0 C 11.199219 0 0 11.085938 0 24.75 C 0 36.015625 15.234375 56.074219 21.914062 64.351562 C 23.515625 66.320312 26.484375 66.320312 28.085938 64.351562 Z M 25 16.5 C 29.601562 16.5 33.332031 20.195312 33.332031 24.75 C 33.332031 29.304688 29.601562 33 25 33 C 20.398438 33 16.667969 29.304688 16.667969 24.75 C 16.667969 20.195312 20.398438 16.5 25 16.5 Z M 25 16.5 "/>
</g>
</svg>
